<svg xmlns="http://www.w3.org/2000/svg" viewBox="0 0 98 24"><style>.st0{fill:#253B80;} .st1{fill:#179BD7;} .st2{fill:#222D65;}</style><path class="st0" d="M36.6 5.4h-5.4c-.4 0-.7.2-.7.6l-2.2 13.9c-.1.2.2.6.5.6h2.6c.4 0 .7-.2.7-.6l.6-3.7c.1-.4.4-.6.7-.6h1.7c3.6 0 5.6-1.7 6.2-5.2.2-1.5 0-2.7-.7-3.5-.8-1-2.1-1.5-4-1.5zm.7 5.1c-.3 2-1.7 2-3.2 2h-.8l.6-3.7c0-.2.2-.4.5-.4h.4c1 0 1.9 0 2.4.6.1.3.1.8.1 1.5zm15.6-.1h-2.6c-.2 0-.4.2-.5.4l-.1.7-.2-.2c-.6-.8-1.8-1.1-3.1-1.1-2.9 0-5.3 2.1-5.8 5.2-.2 1.5.1 3 1 4 .8 1 1.9 1.4 3.2 1.4 2.3 0 3.6-1.5 3.6-1.5l-.1.7c-.1.2.2.6.5.6h2.3c.4 0 .7-.2.7-.6l1.4-8.9c.2-.5-.1-.7-.3-.7zm-3.7 5.1C49 17 47.8 18 46.3 18c-.8 0-1.3-.2-1.7-.7-.4-.5-.6-1.1-.4-1.8.2-1.5 1.4-2.5 2.9-2.5.7 0 1.3.2 1.7.7.4.4.5 1 .4 1.8zm17.5-5.1h-2.6c-.2 0-.5.2-.6.3L59.9 16l-1.5-5c-.1-.3-.4-.6-.7-.6h-2.5c-.3 0-.6.3-.4.6l2.9 8.4-2.7 3.8c-.2.3 0 .7.4.7H58c.2 0 .5-.1.6-.3L67.2 11c0-.2-.1-.6-.5-.6z"/><path class="st1" d="M75.3 5.4h-5.4c-.4 0-.7.2-.7.6L67 19.9c-.1.2.2.6.5.6h2.8c.2 0 .5-.2.6-.5l.6-4c.1-.4.4-.6.7-.6h1.7c3.6 0 5.6-1.7 6.2-5.2.2-1.5 0-2.7-.7-3.5-.9-.8-2.3-1.3-4.1-1.3zm.6 5.1c-.3 2-1.7 2-3.2 2h-.8l.6-3.7c0-.2.2-.4.5-.4h.4c1 0 1.9 0 2.4.6.1.3.2.8.1 1.5zm15.6-.1h-2.6c-.2 0-.4.2-.5.4l-.1.7-.2-.2c-.6-.8-1.8-1.1-3.1-1.1-2.9 0-5.3 2.1-5.8 5.2-.2 1.5.1 3 1 4 .8 1 1.9 1.4 3.2 1.4 2.3 0 3.6-1.5 3.6-1.5v.6c-.1.2.2.6.5.6h2.3c.4 0 .7-.2.7-.6l1.4-8.9c.1-.4-.1-.6-.4-.6zm-3.6 5c-.2 1.5-1.4 2.5-2.9 2.5-.7 0-1.3-.2-1.7-.7s-.6-1.1-.4-1.8c.2-1.5 1.4-2.5 2.9-2.5.7 0 1.3.2 1.7.7.3.5.5 1.1.4 1.8zm6.7-9.7l-2.2 14.2c-.1.2.2.6.5.6h2.2c.4 0 .7-.2.7-.6L98 6c.1-.2-.2-.6-.5-.6H95c-.2-.1-.4.2-.4.3z"/><path class="st0" d="M5.8 23.2l.4-2.6H.9L3.9 1 4 .9c.1 0 .2-.1.2-.1h7.5c2.5 0 4.2.6 5.1 1.6.4.5.7 1 .8 1.5.2.6.2 1.3 0 2.1v.6l.4.2.9.6c.4.4.6 1 .7 1.5.1.6.1 1.4-.1 2.2-.2 1-.5 1.8-1 2.5-.4.6-.9 1.2-1.4 1.6-.6.4-1.2.7-2 .9-.7.2-1.5.3-2.5.3H12c-.4 0-.8.2-1.1.4-.3.2-.6.6-.6 1l-.1.2-.7 4.7v.3c0 .1 0 .1-.1.1l-3.6.1z"/><path class="st1" d="M18.2 6.1v.4c-1 5-4.4 6.8-8.6 6.8H7.4c-.6 0-1 .4-1 .9l-1.1 7.1-.3 2c-.1.3.2.6.6.6h3.9c.5 0 .9-.3 1-.8l.1-.2.7-4.6.1-.2c.1-.5.5-.8 1-.8h.6c3.7 0 6.7-1.5 7.5-6 .4-1.8.2-3.4-.8-4.5-.7-.2-1-.5-1.5-.7z"/><path class="st2" d="M17.3 5.7c-.2-.1-.3-.2-.5-.2s-.3-.1-.5-.1c-.6-.1-1.3-.2-1.9-.2H8.6c-.2 0-.3 0-.4.1-.3.3-.5.5-.6.8L6.4 14v.2c.1-.6.6-.9 1-.9h2.2c4.3 0 7.6-1.7 8.6-6.8v-.4c-.2-.1-.5-.2-.7-.3-.1-.1-.1-.1-.2-.1z"/><path class="st0" d="M7.6 6.1c.1-.3.2-.6.6-.7.2-.1.2-.1.4-.1h5.9c.7 0 1.3.1 1.9.2.2 0 .3.1.5.1s.3.1.5.2c.1 0 .2.1.2.1.3.1.6.2.8.3.3-1.8 0-3.1-1-4.3C16.2.6 14.2 0 11.6 0H4.1c-.5 0-1 .4-1 .9L0 20.6c-.1.4.2.7.6.7h4.6L6.4 14l1.2-7.9z"/></svg>
